<?xml version="1.0" encoding="UTF-8" standalone="no"?><!DOCTYPE svg PUBLIC "-//W3C//DTD SVG 1.1//EN" "http://www.w3.org/Graphics/SVG/1.1/DTD/svg11.dtd"><svg width="100%" height="100%" viewBox="0 0 430 215" version="1.1" xmlns="http://www.w3.org/2000/svg" xmlns:xlink="http://www.w3.org/1999/xlink" xml:space="preserve" xmlns:serif="http://www.serif.com/" style="fill-rule:evenodd;clip-rule:evenodd;"><g id="g1057"><g id="g9455"><path id="path1063" d="M23.452,37.062l-4.635,3.069l4.635,3.069l-0,7.623l5.322,-0l-0,-2.617l-2.717,0l0,-6.414l-2.507,-1.661l2.507,-1.661l0,-6.414l2.717,-0l-0,-2.617l-5.322,0l-0,7.623" style="fill:#4078c0;fill-rule:nonzero;stroke:#fff;stroke-width:0.21px;"/><path id="path1065" d="M52.953,37.062l0,-7.623l-5.322,0l0,2.617l2.717,-0l-0,6.414l2.507,1.661l-2.507,1.661l-0,6.414l-2.717,0l0,2.617l5.322,-0l0,-7.623l4.635,-3.069l-4.635,-3.069" style="fill:#4078c0;fill-rule:nonzero;stroke:#fff;stroke-width:0.21px;"/><path id="path1069" d="M38.401,47.499l-4.625,0l0,-13.644l4.384,0c0.738,0 1.331,0.026 1.78,0.076c1.09,0.148 1.927,0.509 2.51,1.083c0.584,0.572 0.875,1.332 0.875,2.279c0,1.435 -0.743,2.404 -2.231,2.905c1.814,0.444 2.721,1.533 2.721,3.265c-0,0.599 -0.103,1.14 -0.307,1.622c-0.206,0.483 -0.483,0.879 -0.832,1.187c-0.35,0.31 -0.731,0.558 -1.146,0.744c-0.413,0.187 -0.853,0.317 -1.322,0.387c-0.448,0.065 -1.05,0.096 -1.807,0.096Zm-2.463,-6.208l0,4.469l2.675,0c0.449,0 0.76,-0.006 0.932,-0.018c0.583,-0.052 1.059,-0.269 1.429,-0.653c0.368,-0.383 0.552,-0.892 0.552,-1.529c0,-1.32 -0.666,-2.057 -2,-2.212c-0.262,-0.038 -0.606,-0.057 -1.029,-0.057l-2.559,-0Zm0,-5.717l0,4.035l2.366,-0c0.365,-0 0.705,-0.025 1.019,-0.075c1.143,-0.181 1.714,-0.848 1.714,-2.001c-0,-0.578 -0.165,-1.026 -0.495,-1.341c-0.331,-0.315 -0.782,-0.502 -1.353,-0.561c-0.314,-0.038 -0.657,-0.057 -1.029,-0.057l-2.222,0Z" style="fill:#4078c0;fill-rule:nonzero;stroke:#fff;stroke-width:0.21px;"/><path id="path1061" d="M49.169,16.418c-0.853,-0.395 -1.728,-0.75 -2.629,-1.052c-2.604,-0.884 -5.389,-1.362 -8.287,-1.362c-2.927,0 -5.738,0.489 -8.364,1.388c-0.898,0.306 -1.773,0.661 -2.622,1.064c-8.829,4.149 -14.959,13.145 -14.959,23.549c-0,10.414 6.141,19.418 14.985,23.563c0.853,0.399 1.728,0.754 2.63,1.06c2.614,0.892 5.418,1.377 8.33,1.377c2.883,0 5.661,-0.474 8.253,-1.351c0.902,-0.302 1.78,-0.653 2.633,-1.052c8.89,-4.131 15.064,-13.153 15.064,-23.597c0,-10.433 -6.163,-19.448 -15.034,-23.587Zm-10.916,0.198c2.149,0 4.231,0.291 6.205,0.84l-6.257,6.283l-6.234,-6.261c2,-0.563 4.108,-0.862 6.286,-0.862Zm0,46.777c-2.163,0 -4.26,-0.299 -6.253,-0.855l6.201,-6.227l6.223,6.25c-1.966,0.545 -4.033,0.832 -6.171,0.832Zm8.916,-1.772l-8.968,-9.008l-8.938,8.978c-8.42,-3.538 -14.349,-11.881 -14.349,-21.586c0,-9.695 5.914,-18.03 14.32,-21.572l0.003,0l8.964,9.004l8.994,-9.037c8.45,3.522 14.401,11.881 14.401,21.605c0,9.735 -5.966,18.1 -14.427,21.616" style="fill:#4078c0;fill-rule:nonzero;stroke:#fff;stroke-width:0.21px;"/></g></g></svg>